<svg id="svg" version="1.1" xmlns="http://www.w3.org/2000/svg" xmlns:xlink="http://www.w3.org/1999/xlink" width="400" height="400" viewBox="0, 0, 400,400"><g id="svgg"><path id="path0" d="M218.901 76.600 C 218.905 77.480,218.987 77.793,219.083 77.295 C 219.179 76.798,219.175 76.078,219.075 75.695 C 218.975 75.313,218.896 75.720,218.901 76.600 M218.101 82.600 C 218.105 83.480,218.187 83.793,218.283 83.295 C 218.379 82.798,218.375 82.078,218.275 81.695 C 218.175 81.313,218.096 81.720,218.101 82.600 M217.301 93.000 C 217.305 93.880,217.387 94.193,217.483 93.695 C 217.579 93.198,217.575 92.478,217.475 92.095 C 217.375 91.713,217.296 92.120,217.301 93.000 M170.786 99.900 L 168.600 102.200 170.900 100.014 C 173.037 97.982,173.383 97.600,173.086 97.600 C 173.024 97.600,171.989 98.635,170.786 99.900 M218.093 100.000 C 218.093 100.770,218.175 101.085,218.276 100.700 C 218.376 100.315,218.376 99.685,218.276 99.300 C 218.175 98.915,218.093 99.230,218.093 100.000 M218.893 106.000 C 218.893 106.770,218.975 107.085,219.076 106.700 C 219.176 106.315,219.176 105.685,219.076 105.300 C 218.975 104.915,218.893 105.230,218.893 106.000 M163.123 108.700 C 162.418 109.521,161.890 110.400,162.101 110.400 C 162.183 110.400,162.649 109.860,163.137 109.200 C 164.101 107.896,164.092 107.572,163.123 108.700 M146.501 144.200 C 146.505 145.080,146.587 145.393,146.683 144.895 C 146.779 144.398,146.775 143.678,146.675 143.295 C 146.575 142.913,146.496 143.320,146.501 144.200 M239.600 149.400 C 240.346 150.170,241.047 150.800,241.157 150.800 C 241.267 150.800,240.746 150.170,240.000 149.400 C 239.254 148.630,238.553 148.000,238.443 148.000 C 238.333 148.000,238.854 148.630,239.600 149.400 M144.901 152.200 C 144.905 153.080,144.987 153.393,145.083 152.895 C 145.179 152.398,145.175 151.678,145.075 151.295 C 144.975 150.913,144.896 151.320,144.901 152.200 M242.400 152.600 C 243.146 153.370,243.847 154.000,243.957 154.000 C 244.067 154.000,243.546 153.370,242.800 152.600 C 242.054 151.830,241.353 151.200,241.243 151.200 C 241.133 151.200,241.654 151.830,242.400 152.600 M248.200 158.800 C 250.171 160.780,251.873 162.400,251.983 162.400 C 252.093 162.400,250.571 160.780,248.600 158.800 C 246.629 156.820,244.927 155.200,244.817 155.200 C 244.707 155.200,246.229 156.820,248.200 158.800 M144.144 160.000 C 144.144 162.090,144.212 162.945,144.294 161.900 C 144.376 160.855,144.376 159.145,144.294 158.100 C 144.212 157.055,144.144 157.910,144.144 160.000 M254.600 164.800 C 255.459 165.680,256.252 166.400,256.362 166.400 C 256.472 166.400,255.859 165.680,255.000 164.800 C 254.141 163.920,253.348 163.200,253.238 163.200 C 253.128 163.200,253.741 163.920,254.600 164.800 M143.885 168.600 C 144.000 171.240,144.163 173.475,144.247 173.567 C 144.497 173.839,144.331 169.204,143.991 166.400 C 143.771 164.584,143.740 165.247,143.885 168.600 M258.600 168.400 C 259.683 169.500,260.660 170.400,260.770 170.400 C 260.880 170.400,260.083 169.500,259.000 168.400 C 257.917 167.300,256.940 166.400,256.830 166.400 C 256.720 166.400,257.517 167.300,258.600 168.400 M265.993 175.300 C 269.887 179.294,270.400 179.782,270.400 179.493 C 270.400 179.434,268.465 177.499,266.100 175.193 L 261.800 171.000 265.993 175.300 M144.583 175.600 C 144.826 177.196,145.492 180.577,146.396 184.800 C 146.697 186.205,147.614 189.610,149.196 195.200 C 149.664 196.850,150.195 198.740,150.378 199.400 C 150.561 200.060,151.354 202.242,152.141 204.249 C 156.128 214.414,147.480 222.908,137.785 218.351 C 135.325 217.195,131.200 211.225,131.200 208.822 C 131.200 208.602,130.855 207.652,130.433 206.711 C 128.627 202.682,126.463 194.442,126.150 190.405 C 125.872 186.812,125.670 186.000,125.051 186.000 C 124.589 186.000,120.800 191.190,120.800 191.823 C 120.800 191.951,120.287 192.808,119.659 193.728 C 117.892 196.317,113.403 205.932,112.435 209.200 C 112.142 210.190,111.559 212.170,111.140 213.600 C 110.720 215.030,110.216 216.740,110.019 217.400 C 109.600 218.804,109.058 221.728,108.386 226.200 C 108.122 227.960,107.648 230.200,107.332 231.177 C 106.461 233.869,106.493 247.288,107.379 251.000 C 107.747 252.540,108.233 254.700,108.461 255.800 C 113.490 280.136,125.489 300.221,142.749 313.200 C 144.358 314.410,146.267 315.895,146.990 316.500 C 147.714 317.105,148.479 317.600,148.691 317.600 C 148.903 317.600,149.385 317.941,149.762 318.358 C 150.139 318.775,153.722 320.750,157.724 322.748 C 164.454 326.108,168.662 327.741,176.400 329.998 C 178.050 330.480,179.813 331.037,180.319 331.237 C 180.824 331.437,181.814 331.600,182.519 331.600 C 183.224 331.600,185.060 331.907,186.600 332.282 C 189.942 333.097,211.418 333.542,212.148 332.812 C 212.374 332.586,212.884 332.400,213.280 332.400 C 213.676 332.400,214.000 332.220,214.000 332.000 C 214.000 331.780,214.394 331.600,214.876 331.600 C 216.345 331.600,220.400 330.660,220.400 330.320 C 220.400 330.144,221.120 330.000,222.000 330.000 C 222.880 330.000,223.600 329.820,223.600 329.600 C 223.600 329.380,224.320 329.200,225.200 329.200 C 226.080 329.200,226.800 329.020,226.800 328.800 C 226.800 328.580,227.102 328.400,227.472 328.400 C 228.224 328.400,230.633 327.687,231.695 327.151 C 232.077 326.958,232.645 326.800,232.957 326.800 C 233.269 326.800,234.216 326.461,235.062 326.046 C 235.908 325.631,237.860 324.709,239.400 323.998 C 244.076 321.837,247.424 320.057,249.262 318.753 C 249.846 318.339,250.429 318.000,250.557 318.000 C 250.686 318.000,251.108 317.739,251.495 317.420 C 251.883 317.100,253.582 315.795,255.272 314.520 C 263.307 308.453,275.102 295.964,277.166 291.339 C 277.378 290.865,277.724 290.370,277.936 290.239 C 278.340 289.990,285.600 275.590,285.600 275.038 C 285.600 274.864,285.861 274.154,286.180 273.460 C 286.869 271.964,288.820 266.127,289.944 262.200 C 291.782 255.780,292.853 233.032,291.605 226.931 C 291.388 225.869,290.839 223.200,290.387 221.000 C 289.329 215.866,286.117 205.350,285.726 205.741 C 285.638 205.829,285.824 206.598,286.138 207.450 C 288.965 215.110,291.518 227.511,291.583 233.900 C 291.600 235.595,290.171 236.447,289.400 235.200 C 289.264 234.980,288.623 234.800,287.976 234.800 C 287.329 234.800,286.800 234.620,286.800 234.400 C 286.800 234.180,285.900 234.000,284.800 234.000 C 283.700 234.000,282.800 233.820,282.800 233.600 C 282.800 233.380,282.440 233.200,282.000 233.200 C 281.560 233.200,281.200 233.020,281.200 232.800 C 281.200 232.580,280.840 232.400,280.400 232.400 C 279.960 232.400,279.600 232.220,279.600 232.000 C 279.600 231.780,279.060 231.600,278.400 231.600 C 277.740 231.600,277.200 231.420,277.200 231.200 C 277.200 230.980,276.660 230.800,276.000 230.800 C 275.340 230.800,274.800 230.620,274.800 230.400 C 274.800 230.180,274.181 230.000,273.424 230.000 C 272.667 230.000,271.936 229.820,271.800 229.600 C 271.664 229.380,271.203 229.200,270.776 229.200 C 270.349 229.200,270.000 229.020,270.000 228.800 C 270.000 228.580,269.217 228.400,268.259 228.400 C 266.870 228.400,266.265 228.157,265.259 227.197 C 264.149 226.136,263.899 226.053,263.148 226.497 C 262.467 226.899,262.259 226.899,262.114 226.500 C 262.015 226.225,261.526 226.000,261.029 226.000 C 260.531 226.000,259.798 225.640,259.400 225.200 C 258.999 224.757,258.168 224.400,257.538 224.400 C 256.912 224.400,256.400 224.220,256.400 224.000 C 256.400 223.780,255.680 223.600,254.800 223.600 C 253.920 223.600,253.200 223.420,253.200 223.200 C 253.200 222.980,252.660 222.800,252.000 222.800 C 251.163 222.800,250.800 222.605,250.800 222.155 C 250.800 221.633,250.529 221.562,249.369 221.779 C 248.158 222.007,247.906 221.927,247.732 221.263 C 247.588 220.711,247.060 220.406,245.963 220.239 C 245.104 220.107,243.680 219.891,242.800 219.758 C 241.920 219.625,241.200 219.355,241.200 219.158 C 241.200 218.961,240.840 218.800,240.400 218.800 C 239.960 218.800,239.600 218.620,239.600 218.400 C 239.600 218.180,239.060 218.000,238.400 218.000 C 237.740 218.000,237.200 217.820,237.200 217.600 C 237.200 217.380,236.761 217.200,236.224 217.200 C 235.687 217.200,235.136 217.020,235.000 216.800 C 234.864 216.580,234.155 216.400,233.425 216.400 C 232.695 216.400,231.871 216.126,231.593 215.791 C 231.313 215.454,230.770 215.283,230.377 215.407 C 229.987 215.531,229.552 215.445,229.410 215.216 C 229.269 214.987,228.623 214.800,227.976 214.800 C 227.294 214.800,226.800 214.587,226.800 214.294 C 226.800 213.798,220.482 211.574,219.124 211.591 C 218.752 211.596,218.336 211.420,218.200 211.200 C 218.064 210.980,217.603 210.800,217.176 210.800 C 216.749 210.800,216.400 210.620,216.400 210.400 C 216.400 210.180,215.860 210.000,215.200 210.000 C 214.540 210.000,214.000 209.820,214.000 209.600 C 214.000 209.380,213.460 209.200,212.800 209.200 C 212.140 209.200,211.600 209.020,211.600 208.800 C 211.600 208.580,210.981 208.400,210.224 208.400 C 209.467 208.400,208.736 208.220,208.600 208.000 C 208.464 207.780,207.838 207.600,207.210 207.600 C 206.581 207.600,206.007 207.465,205.933 207.300 C 205.687 206.747,202.335 205.200,201.381 205.200 C 200.480 205.200,199.786 204.972,196.932 203.740 C 196.234 203.439,195.109 203.082,194.432 202.946 C 193.754 202.811,193.200 202.563,193.200 202.397 C 193.200 202.027,191.882 201.595,190.000 201.346 C 189.230 201.244,188.540 200.990,188.467 200.781 C 188.393 200.571,187.988 200.400,187.567 200.400 C 187.145 200.400,186.800 200.220,186.800 200.000 C 186.800 199.780,186.080 199.600,185.200 199.600 C 184.320 199.600,183.600 199.420,183.600 199.200 C 183.600 198.980,183.060 198.800,182.400 198.800 C 181.740 198.800,181.200 198.620,181.200 198.400 C 181.200 198.180,180.660 198.000,180.000 198.000 C 179.340 198.000,178.800 197.820,178.800 197.600 C 178.800 197.380,178.080 197.200,177.200 197.200 C 176.320 197.200,175.600 197.020,175.600 196.800 C 175.600 196.580,175.240 196.400,174.800 196.400 C 174.360 196.400,174.000 196.220,174.000 196.000 C 174.000 195.780,173.640 195.600,173.200 195.600 C 172.760 195.600,172.400 195.420,172.400 195.200 C 172.400 194.980,171.860 194.800,171.200 194.800 C 170.540 194.800,170.000 194.620,170.000 194.400 C 170.000 194.180,169.044 194.000,167.875 194.000 C 166.304 194.000,165.527 193.792,164.892 193.200 C 164.369 192.712,163.481 192.400,162.617 192.400 C 161.838 192.400,161.200 192.220,161.200 192.000 C 161.200 191.780,160.859 191.600,160.443 191.600 C 160.026 191.600,159.575 191.311,159.439 190.958 C 159.264 190.500,158.906 190.387,158.196 190.565 C 157.623 190.709,157.200 190.642,157.200 190.408 C 157.200 190.183,156.761 190.000,156.224 190.000 C 155.687 190.000,155.136 189.820,155.000 189.600 C 154.864 189.380,154.223 189.200,153.576 189.200 C 152.929 189.200,152.400 189.020,152.400 188.800 C 152.400 188.580,152.097 188.400,151.726 188.400 C 150.610 188.400,147.600 186.769,147.600 186.164 C 147.600 185.854,147.420 185.600,147.200 185.600 C 146.980 185.600,146.800 184.891,146.800 184.024 C 146.800 183.157,146.639 182.348,146.442 182.226 C 146.245 182.105,145.986 181.329,145.865 180.503 C 145.306 176.666,144.836 174.303,144.584 174.063 C 144.432 173.918,144.432 174.610,144.583 175.600 M272.374 182.300 C 273.337 183.455,274.202 184.400,274.296 184.400 C 274.568 184.400,272.104 181.382,271.326 180.762 C 270.939 180.453,271.410 181.145,272.374 182.300 M277.960 190.600 C 278.634 191.905,279.188 192.628,279.185 192.200 C 279.183 191.980,278.814 191.350,278.364 190.800 C 277.821 190.136,277.685 190.069,277.960 190.600 M281.484 196.986 C 282.297 198.628,283.027 199.907,283.106 199.827 C 283.285 199.649,280.465 194.000,280.198 194.000 C 280.093 194.000,280.671 195.344,281.484 196.986 M284.034 202.200 C 284.034 202.420,284.378 203.230,284.800 204.000 C 285.222 204.770,285.566 205.220,285.566 205.000 C 285.566 204.780,285.222 203.970,284.800 203.200 C 284.378 202.430,284.034 201.980,284.034 202.200 " stroke="none" fill="#1f33b6" fill-rule="evenodd"></path><path id="path1" d="M216.000 68.812 C 208.676 71.844,194.703 79.917,187.601 85.218 C 170.031 98.334,157.695 113.711,150.718 131.191 C 149.222 134.940,146.803 142.729,146.802 143.800 C 146.801 144.240,146.455 146.130,146.031 148.000 C 143.870 157.545,143.564 168.326,145.213 176.800 C 145.448 178.010,145.741 179.676,145.863 180.503 C 145.985 181.329,146.245 182.105,146.442 182.226 C 146.639 182.348,146.800 183.157,146.800 184.024 C 146.800 184.891,146.980 185.600,147.200 185.600 C 147.420 185.600,147.600 185.854,147.600 186.164 C 147.600 186.769,150.610 188.400,151.726 188.400 C 152.097 188.400,152.400 188.580,152.400 188.800 C 152.400 189.020,152.929 189.200,153.576 189.200 C 154.223 189.200,154.864 189.380,155.000 189.600 C 155.136 189.820,155.687 190.000,156.224 190.000 C 156.761 190.000,157.200 190.183,157.200 190.408 C 157.200 190.642,157.623 190.709,158.196 190.565 C 158.906 190.387,159.264 190.500,159.439 190.958 C 159.575 191.311,160.026 191.600,160.443 191.600 C 160.859 191.600,161.200 191.780,161.200 192.000 C 161.200 192.220,161.838 192.400,162.617 192.400 C 163.481 192.400,164.369 192.712,164.892 193.200 C 165.527 193.792,166.304 194.000,167.875 194.000 C 169.044 194.000,170.000 194.180,170.000 194.400 C 170.000 194.620,170.540 194.800,171.200 194.800 C 171.860 194.800,172.400 194.980,172.400 195.200 C 172.400 195.420,172.760 195.600,173.200 195.600 C 173.640 195.600,174.000 195.780,174.000 196.000 C 174.000 196.220,174.360 196.400,174.800 196.400 C 175.240 196.400,175.600 196.580,175.600 196.800 C 175.600 197.020,176.320 197.200,177.200 197.200 C 178.080 197.200,178.800 197.380,178.800 197.600 C 178.800 197.820,179.340 198.000,180.000 198.000 C 180.660 198.000,181.200 198.180,181.200 198.400 C 181.200 198.620,181.740 198.800,182.400 198.800 C 183.060 198.800,183.600 198.980,183.600 199.200 C 183.600 199.420,184.320 199.600,185.200 199.600 C 186.080 199.600,186.800 199.780,186.800 200.000 C 186.800 200.220,187.145 200.400,187.567 200.400 C 187.988 200.400,188.393 200.571,188.467 200.781 C 188.540 200.990,189.230 201.244,190.000 201.346 C 191.882 201.595,193.200 202.027,193.200 202.397 C 193.200 202.563,193.754 202.811,194.432 202.946 C 195.109 203.082,196.234 203.439,196.932 203.740 C 199.786 204.972,200.480 205.200,201.381 205.200 C 202.335 205.200,205.687 206.747,205.933 207.300 C 206.007 207.465,206.581 207.600,207.210 207.600 C 207.838 207.600,208.464 207.780,208.600 208.000 C 208.736 208.220,209.467 208.400,210.224 208.400 C 210.981 208.400,211.600 208.580,211.600 208.800 C 211.600 209.020,212.140 209.200,212.800 209.200 C 213.460 209.200,214.000 209.380,214.000 209.600 C 214.000 209.820,214.540 210.000,215.200 210.000 C 215.860 210.000,216.400 210.180,216.400 210.400 C 216.400 210.620,216.749 210.800,217.176 210.800 C 217.603 210.800,218.064 210.980,218.200 211.200 C 218.336 211.420,218.752 211.596,219.124 211.591 C 220.482 211.574,226.800 213.798,226.800 214.294 C 226.800 214.587,227.294 214.800,227.976 214.800 C 228.623 214.800,229.269 214.987,229.410 215.216 C 229.552 215.445,229.987 215.531,230.377 215.407 C 230.770 215.283,231.313 215.454,231.593 215.791 C 231.871 216.126,232.695 216.400,233.425 216.400 C 234.155 216.400,234.864 216.580,235.000 216.800 C 235.136 217.020,235.687 217.200,236.224 217.200 C 236.761 217.200,237.200 217.380,237.200 217.600 C 237.200 217.820,237.740 218.000,238.400 218.000 C 239.060 218.000,239.600 218.180,239.600 218.400 C 239.600 218.620,239.960 218.800,240.400 218.800 C 240.840 218.800,241.200 218.961,241.200 219.158 C 241.200 219.355,241.920 219.625,242.800 219.758 C 243.680 219.891,245.104 220.107,245.963 220.239 C 247.060 220.406,247.588 220.711,247.732 221.263 C 247.906 221.927,248.158 222.007,249.369 221.779 C 250.529 221.562,250.800 221.633,250.800 222.155 C 250.800 222.605,251.163 222.800,252.000 222.800 C 252.660 222.800,253.200 222.980,253.200 223.200 C 253.200 223.420,253.920 223.600,254.800 223.600 C 255.680 223.600,256.400 223.780,256.400 224.000 C 256.400 224.220,256.912 224.400,257.538 224.400 C 258.168 224.400,258.999 224.757,259.400 225.200 C 259.798 225.640,260.531 226.000,261.029 226.000 C 261.526 226.000,262.015 226.225,262.114 226.500 C 262.259 226.899,262.467 226.899,263.148 226.497 C 263.899 226.053,264.149 226.136,265.259 227.197 C 266.265 228.157,266.870 228.400,268.259 228.400 C 269.217 228.400,270.000 228.580,270.000 228.800 C 270.000 229.020,270.349 229.200,270.776 229.200 C 271.203 229.200,271.664 229.380,271.800 229.600 C 271.936 229.820,272.667 230.000,273.424 230.000 C 274.181 230.000,274.800 230.180,274.800 230.400 C 274.800 230.620,275.340 230.800,276.000 230.800 C 276.660 230.800,277.200 230.980,277.200 231.200 C 277.200 231.420,277.740 231.600,278.400 231.600 C 279.060 231.600,279.600 231.780,279.600 232.000 C 279.600 232.220,279.960 232.400,280.400 232.400 C 280.840 232.400,281.200 232.580,281.200 232.800 C 281.200 233.020,281.560 233.200,282.000 233.200 C 282.440 233.200,282.800 233.380,282.800 233.600 C 282.800 233.820,283.700 234.000,284.800 234.000 C 285.900 234.000,286.800 234.180,286.800 234.400 C 286.800 234.620,287.329 234.800,287.976 234.800 C 288.623 234.800,289.264 234.980,289.400 235.200 C 290.171 236.447,291.600 235.595,291.583 233.900 C 291.534 229.114,289.619 218.288,287.815 212.600 C 285.815 206.292,285.446 205.334,283.127 200.415 C 276.171 185.662,272.258 180.777,254.325 164.460 C 243.025 154.177,236.165 145.769,228.495 132.800 C 224.116 125.395,219.483 111.446,218.398 102.400 C 218.148 100.310,217.782 97.430,217.586 96.000 C 217.159 92.897,218.549 75.376,219.321 74.128 C 219.771 73.400,221.142 67.829,220.948 67.516 C 220.626 66.996,219.975 67.166,216.000 68.812 " stroke="none" fill="#2c7cf2" fill-rule="evenodd"></path><path id="path2" d="M0.000 200.000 L 0.000 400.000 200.000 400.000 L 400.000 400.000 400.000 200.000 L 400.000 0.000 200.000 0.000 L 0.000 0.000 0.000 200.000 M221.547 66.359 C 222.134 66.731,222.024 68.643,221.268 71.200 C 218.869 79.309,217.862 93.478,219.135 101.200 C 219.406 102.850,219.824 105.370,220.062 106.800 C 221.209 113.691,223.124 119.118,228.084 129.538 C 229.755 133.048,238.625 147.080,240.118 148.576 C 240.383 148.842,241.950 150.558,243.600 152.389 C 247.814 157.068,249.657 158.912,253.999 162.800 C 256.087 164.670,258.877 167.203,260.198 168.428 C 261.519 169.653,263.662 171.633,264.961 172.828 C 277.415 184.287,286.716 201.002,291.320 220.200 C 292.763 226.216,293.408 247.796,292.390 256.000 C 290.739 269.308,281.423 289.849,272.443 299.982 C 260.554 313.397,250.133 321.237,237.000 326.647 C 235.680 327.191,234.240 327.803,233.800 328.007 C 232.144 328.776,227.037 330.434,224.000 331.189 C 223.230 331.381,221.880 331.814,221.000 332.151 C 220.120 332.489,218.747 332.773,217.949 332.782 C 217.151 332.792,215.801 333.115,214.949 333.500 C 213.577 334.120,211.934 334.200,200.600 334.200 C 189.538 334.200,187.493 334.105,185.538 333.500 C 184.295 333.115,182.755 332.800,182.116 332.800 C 181.478 332.800,179.885 332.464,178.578 332.053 C 177.270 331.642,174.040 330.631,171.400 329.805 C 140.687 320.196,115.974 293.419,108.823 262.000 C 108.147 259.030,107.205 254.991,106.730 253.025 C 105.485 247.877,105.508 233.739,106.768 229.208 C 107.226 227.562,107.600 225.720,107.600 225.114 C 107.600 223.005,110.504 211.681,112.193 207.200 C 112.675 205.921,114.414 202.103,117.082 196.464 C 117.647 195.269,119.139 192.736,120.398 190.835 C 121.657 188.934,122.987 186.798,123.354 186.089 C 124.821 183.253,126.800 184.623,126.800 188.474 C 126.800 191.212,127.030 192.527,128.464 198.000 C 129.337 201.330,131.257 206.889,132.434 209.496 C 132.855 210.428,133.200 211.388,133.200 211.628 C 133.200 213.529,136.816 217.192,139.677 218.188 C 148.548 221.278,154.663 213.367,150.953 203.600 C 149.589 200.011,149.099 198.418,147.134 191.200 C 142.581 174.470,141.906 162.086,144.814 148.600 C 145.288 146.400,145.806 143.880,145.964 143.000 C 146.356 140.825,147.444 137.243,148.880 133.400 C 150.284 129.645,150.284 129.643,152.381 125.060 C 153.271 123.113,154.000 121.436,154.000 121.332 C 154.000 121.229,154.540 120.359,155.200 119.400 C 155.860 118.441,156.400 117.559,156.400 117.440 C 156.400 117.183,159.410 112.652,161.559 109.674 C 166.456 102.891,178.224 90.774,183.365 87.223 C 183.824 86.906,184.290 86.525,184.400 86.376 C 184.777 85.866,193.858 79.600,194.220 79.600 C 194.361 79.600,194.954 79.262,195.538 78.849 C 203.301 73.356,219.962 65.355,221.547 66.359 " stroke="none" fill="#040404" fill-rule="evenodd"></path><path id="path3" d="M219.000 66.652 C 218.005 67.138,217.971 67.195,218.800 66.984 C 222.159 66.130,222.257 66.576,220.169 73.200 C 217.578 81.418,217.663 99.517,220.344 110.427 C 221.466 114.989,222.525 118.251,223.772 120.976 C 224.337 122.212,224.800 123.383,224.800 123.577 C 224.800 123.916,225.882 126.200,228.507 131.400 C 229.173 132.720,230.232 134.574,230.859 135.520 C 231.487 136.466,232.000 137.317,232.000 137.411 C 232.000 138.004,239.017 147.920,241.180 150.385 C 245.080 154.828,252.991 162.659,260.187 169.200 C 268.110 176.402,268.028 176.321,271.353 180.175 C 280.137 190.353,287.897 206.930,291.061 222.277 C 293.078 232.057,292.670 254.295,290.321 262.600 C 286.194 277.193,280.047 289.642,272.446 298.800 C 259.457 314.450,243.865 324.662,224.400 330.269 C 223.190 330.617,221.474 331.149,220.587 331.451 C 219.699 331.753,218.324 332.000,217.530 332.000 C 216.737 332.000,215.303 332.356,214.344 332.791 C 211.950 333.877,191.370 334.004,186.925 332.960 C 185.426 332.608,183.300 332.177,182.200 332.003 C 179.920 331.642,175.788 330.567,174.600 330.025 C 174.160 329.824,173.350 329.578,172.800 329.478 C 171.689 329.275,168.184 328.087,167.105 327.547 C 166.723 327.356,166.183 327.197,165.905 327.194 C 164.920 327.184,151.762 320.388,148.798 318.360 C 142.663 314.161,126.400 298.966,126.400 297.433 C 126.400 297.122,126.250 296.807,126.068 296.733 C 125.647 296.565,121.258 289.991,119.970 287.600 C 119.436 286.610,118.910 285.710,118.800 285.600 C 117.869 284.669,112.800 274.036,112.800 273.014 C 112.800 272.702,112.620 272.336,112.400 272.200 C 112.180 272.064,112.000 271.601,112.000 271.171 C 112.000 270.741,111.820 270.032,111.600 269.595 C 111.380 269.158,111.020 268.442,110.800 268.005 C 110.580 267.568,110.400 266.589,110.400 265.829 C 110.400 265.069,110.241 264.349,110.046 264.229 C 109.851 264.108,109.575 263.423,109.431 262.705 C 109.287 261.987,108.989 260.500,108.769 259.400 C 108.549 258.300,108.223 256.500,108.045 255.400 C 107.868 254.300,107.446 252.590,107.109 251.600 C 106.333 249.318,106.391 232.372,107.184 229.800 C 107.653 228.278,107.978 226.497,108.735 221.300 C 108.919 220.035,109.366 218.190,109.729 217.200 C 110.092 216.210,110.391 215.006,110.394 214.524 C 110.397 214.042,110.580 213.536,110.800 213.400 C 111.020 213.264,111.200 212.634,111.200 212.000 C 111.200 211.366,111.380 210.736,111.600 210.600 C 111.820 210.464,112.000 209.924,112.000 209.400 C 112.000 208.876,112.180 208.336,112.400 208.200 C 112.620 208.064,112.800 207.629,112.800 207.233 C 112.800 206.836,113.319 205.452,113.953 204.156 C 114.588 202.860,115.879 200.180,116.822 198.200 C 117.765 196.220,119.046 193.848,119.668 192.928 C 120.291 192.008,120.800 191.091,120.800 190.890 C 120.800 190.689,121.160 190.198,121.600 189.800 C 122.040 189.402,122.400 188.921,122.400 188.732 C 122.400 187.964,124.245 185.610,124.851 185.605 C 125.968 185.596,126.326 186.494,126.529 189.801 C 126.636 191.560,126.915 193.900,127.147 195.000 C 127.379 196.100,127.687 197.587,127.831 198.305 C 127.975 199.023,128.251 199.708,128.446 199.829 C 128.641 199.949,128.800 200.476,128.800 201.000 C 128.800 201.524,128.980 202.064,129.200 202.200 C 129.420 202.336,129.600 202.773,129.600 203.170 C 129.600 203.883,130.581 206.574,132.050 209.896 C 132.462 210.828,132.800 211.863,132.800 212.196 C 132.800 212.528,132.936 212.800,133.102 212.800 C 133.269 212.800,133.655 213.366,133.961 214.058 C 134.746 215.831,137.505 218.400,138.625 218.400 C 139.135 218.400,139.664 218.580,139.800 218.800 C 140.155 219.375,145.845 219.295,146.885 218.700 C 147.366 218.425,148.117 217.885,148.555 217.500 C 148.993 217.115,149.483 216.800,149.645 216.800 C 151.574 216.800,153.736 208.229,152.447 205.695 C 152.115 205.043,151.685 204.025,150.844 201.900 C 150.314 200.564,149.155 196.798,148.781 195.200 C 148.601 194.430,148.271 193.170,148.049 192.400 C 147.040 188.902,146.716 187.693,146.392 186.200 C 146.200 185.320,145.851 183.790,145.615 182.800 C 143.537 174.068,143.043 166.621,143.946 157.600 C 144.199 155.070,144.485 152.190,144.583 151.200 L 144.760 149.400 144.368 151.000 C 143.243 155.594,142.723 166.231,143.348 171.881 C 144.029 178.046,145.252 184.284,147.134 191.200 C 149.099 198.418,149.589 200.011,150.953 203.600 C 154.663 213.367,148.548 221.278,139.677 218.188 C 136.816 217.192,133.200 213.529,133.200 211.628 C 133.200 211.388,132.855 210.428,132.434 209.496 C 131.257 206.889,129.337 201.330,128.464 198.000 C 127.030 192.527,126.800 191.212,126.800 188.474 C 126.800 184.623,124.821 183.253,123.354 186.089 C 122.987 186.798,121.657 188.934,120.398 190.835 C 119.139 192.736,117.647 195.269,117.082 196.464 C 114.414 202.103,112.675 205.921,112.193 207.200 C 110.504 211.681,107.600 223.005,107.600 225.114 C 107.600 225.720,107.226 227.562,106.768 229.208 C 105.508 233.739,105.485 247.877,106.730 253.025 C 107.205 254.991,108.147 259.030,108.823 262.000 C 115.974 293.419,140.687 320.196,171.400 329.805 C 174.040 330.631,177.270 331.642,178.578 332.053 C 179.885 332.464,181.478 332.800,182.116 332.800 C 182.755 332.800,184.295 333.115,185.538 333.500 C 187.493 334.105,189.538 334.200,200.600 334.200 C 211.934 334.200,213.577 334.120,214.949 333.500 C 215.801 333.115,217.151 332.792,217.949 332.782 C 218.747 332.773,220.120 332.489,221.000 332.151 C 221.880 331.814,223.230 331.381,224.000 331.189 C 227.037 330.434,232.144 328.776,233.800 328.007 C 234.240 327.803,235.680 327.191,237.000 326.647 C 250.133 321.237,260.554 313.397,272.443 299.982 C 281.423 289.849,290.739 269.308,292.390 256.000 C 293.408 247.796,292.763 226.216,291.320 220.200 C 286.716 201.002,277.415 184.287,264.961 172.828 C 263.662 171.633,261.519 169.653,260.198 168.428 C 258.877 167.203,256.087 164.670,253.999 162.800 C 249.657 158.912,247.814 157.068,243.600 152.389 C 241.950 150.558,240.383 148.842,240.118 148.576 C 239.854 148.311,237.481 144.850,234.845 140.885 C 226.919 128.958,221.778 117.106,220.062 106.800 C 219.824 105.370,219.406 102.850,219.135 101.200 C 217.862 93.478,218.869 79.309,221.268 71.200 C 222.636 66.575,221.954 65.207,219.000 66.652 M215.600 67.940 C 211.906 69.316,199.400 76.116,195.538 78.849 C 194.954 79.262,194.361 79.600,194.220 79.600 C 193.858 79.600,184.777 85.866,184.400 86.376 C 184.290 86.525,183.824 86.906,183.365 87.223 C 178.224 90.774,166.456 102.891,161.559 109.674 C 159.410 112.652,156.400 117.183,156.400 117.440 C 156.400 117.559,155.860 118.441,155.200 119.400 C 154.540 120.359,154.000 121.229,154.000 121.332 C 154.000 121.436,153.271 123.113,152.381 125.060 C 150.284 129.645,150.283 129.646,148.881 133.400 C 147.427 137.291,146.000 141.987,146.000 142.879 C 146.000 143.240,145.718 144.638,145.372 145.985 C 145.027 147.332,144.817 148.652,144.906 148.917 C 145.069 149.406,146.400 144.028,146.400 142.879 C 146.400 142.537,146.580 141.704,146.800 141.028 C 147.020 140.353,147.634 138.450,148.164 136.800 C 149.180 133.638,151.318 128.099,152.176 126.404 C 152.456 125.852,153.248 124.230,153.936 122.800 C 156.242 118.004,158.188 114.882,162.153 109.621 C 165.017 105.820,175.446 94.000,175.937 93.999 C 176.082 93.999,177.010 93.267,178.000 92.373 C 183.724 87.201,189.454 82.817,193.972 80.153 C 195.637 79.172,197.270 78.200,197.600 77.995 C 200.016 76.495,203.655 74.400,203.845 74.400 C 203.972 74.400,204.554 74.060,205.138 73.644 C 206.565 72.629,214.067 68.800,214.630 68.800 C 215.152 68.800,217.600 67.622,217.600 67.371 C 217.600 67.277,217.555 67.216,217.500 67.235 C 217.445 67.254,216.590 67.571,215.600 67.940 " stroke="none" fill="#0c3f56" fill-rule="evenodd"></path><path id="path4" d="M219.600 66.802 C 219.129 67.116,219.215 67.181,220.000 67.101 C 220.921 67.008,220.996 67.124,220.949 68.563 C 220.910 69.734,220.992 69.957,221.274 69.453 C 222.240 67.727,221.046 65.836,219.600 66.802 M212.600 69.627 C 211.940 70.050,211.544 70.397,211.720 70.398 C 212.160 70.401,214.400 69.224,214.400 68.990 C 214.400 68.642,213.812 68.851,212.600 69.627 M206.925 72.531 C 203.968 74.339,203.758 74.775,206.600 73.205 C 209.147 71.799,210.019 71.179,209.380 71.231 C 209.171 71.247,208.066 71.832,206.925 72.531 M220.200 72.000 C 220.050 72.473,220.017 72.950,220.127 73.060 C 220.237 73.170,220.450 72.873,220.600 72.400 C 220.750 71.927,220.783 71.450,220.673 71.340 C 220.563 71.230,220.350 71.527,220.200 72.000 M219.400 74.400 C 219.250 74.873,219.217 75.350,219.327 75.460 C 219.437 75.570,219.650 75.273,219.800 74.800 C 219.950 74.327,219.983 73.850,219.873 73.740 C 219.763 73.630,219.550 73.927,219.400 74.400 M201.600 75.618 C 200.610 76.260,199.912 76.788,200.050 76.792 C 200.395 76.803,204.000 74.771,204.000 74.566 C 204.000 74.205,203.321 74.502,201.600 75.618 M196.418 78.650 C 195.658 79.189,194.938 79.737,194.818 79.866 C 194.454 80.260,196.944 78.904,197.800 78.243 C 199.106 77.235,197.919 77.584,196.418 78.650 M218.618 79.818 C 218.465 80.839,218.430 81.763,218.540 81.873 C 218.650 81.983,218.865 81.239,219.018 80.218 C 219.171 79.198,219.206 78.273,219.096 78.163 C 218.986 78.053,218.771 78.798,218.618 79.818 M192.500 81.026 C 190.612 82.158,190.177 82.749,191.900 81.841 C 193.109 81.203,194.716 80.031,194.400 80.017 C 194.290 80.012,193.435 80.466,192.500 81.026 M186.797 85.045 C 183.030 87.911,178.198 92.000,178.579 92.000 C 178.714 92.000,179.965 91.032,181.360 89.848 C 183.292 88.210,188.312 84.345,190.367 82.916 C 190.458 82.852,190.457 82.724,190.364 82.631 C 190.271 82.537,188.666 83.624,186.797 85.045 M217.789 88.642 C 217.629 91.195,217.657 94.570,217.849 96.142 C 218.148 98.574,218.208 97.881,218.256 91.500 C 218.321 82.851,218.198 82.097,217.789 88.642 M175.322 94.700 C 173.063 96.815,168.579 101.600,168.857 101.600 C 168.955 101.600,170.967 99.620,173.328 97.200 C 177.909 92.505,178.621 91.613,175.322 94.700 M218.495 101.400 C 218.495 102.060,218.632 103.140,218.800 103.800 L 219.105 105.000 219.105 103.800 C 219.105 103.140,218.968 102.060,218.800 101.400 L 218.495 100.200 218.495 101.400 M166.768 103.900 C 164.286 106.680,163.885 107.199,164.230 107.178 C 164.434 107.165,165.374 106.175,166.319 104.978 C 168.151 102.656,168.390 102.082,166.768 103.900 M219.280 107.000 C 219.280 107.440,219.424 108.250,219.600 108.800 C 219.854 109.592,219.920 109.633,219.920 109.000 C 219.920 108.560,219.776 107.750,219.600 107.200 C 219.346 106.408,219.280 106.367,219.280 107.000 M160.604 111.700 C 159.746 112.855,158.877 114.025,158.673 114.300 C 158.469 114.575,158.392 114.800,158.503 114.800 C 158.694 114.800,161.514 111.164,162.149 110.100 C 162.849 108.927,162.049 109.755,160.604 111.700 M220.056 110.400 C 220.056 110.730,220.211 111.360,220.400 111.800 C 220.617 112.304,220.744 112.378,220.744 112.000 C 220.744 111.670,220.589 111.040,220.400 110.600 C 220.183 110.096,220.056 110.022,220.056 110.400 M157.461 116.267 C 157.054 116.810,156.805 117.338,156.907 117.440 C 157.008 117.542,157.400 117.154,157.778 116.578 C 158.667 115.221,158.422 114.981,157.461 116.267 M221.612 116.400 C 221.612 116.730,221.787 117.270,222.000 117.600 C 222.345 118.133,222.388 118.133,222.388 117.600 C 222.388 117.270,222.213 116.730,222.000 116.400 C 221.655 115.867,221.612 115.867,221.612 116.400 M155.489 119.700 C 153.917 122.406,152.730 124.864,152.909 125.042 C 152.999 125.132,153.901 123.585,154.912 121.603 C 156.856 117.794,157.141 116.855,155.489 119.700 M227.200 129.788 C 227.200 130.108,228.853 132.978,229.281 133.400 C 229.504 133.620,229.214 132.855,228.636 131.700 C 227.716 129.860,227.200 129.172,227.200 129.788 M229.600 134.142 C 229.600 134.580,231.700 137.634,231.878 137.455 C 231.967 137.366,231.570 136.602,230.997 135.757 C 229.797 133.990,229.600 133.762,229.600 134.142 M146.600 141.600 C 146.450 142.073,146.417 142.550,146.527 142.660 C 146.637 142.770,146.850 142.473,147.000 142.000 C 147.150 141.527,147.183 141.050,147.073 140.940 C 146.963 140.830,146.750 141.127,146.600 141.600 M146.049 144.800 C 146.016 145.130,145.889 145.850,145.767 146.400 C 145.575 147.264,145.607 147.303,145.999 146.688 C 146.248 146.297,146.375 145.577,146.281 145.088 C 146.186 144.600,146.082 144.470,146.049 144.800 M237.617 146.677 C 237.627 146.855,239.089 148.530,240.867 150.400 C 242.645 152.270,243.602 153.170,242.995 152.400 C 241.314 150.267,237.598 146.313,237.617 146.677 M145.000 149.200 C 144.848 149.891,144.814 150.547,144.924 150.657 C 145.034 150.767,145.248 150.291,145.400 149.600 C 145.552 148.909,145.586 148.253,145.476 148.143 C 145.366 148.033,145.152 148.509,145.000 149.200 M144.276 153.210 C 144.130 153.755,144.028 154.740,144.049 155.400 C 144.080 156.357,144.159 156.236,144.442 154.800 C 144.829 152.833,144.702 151.617,144.276 153.210 M248.400 158.600 C 250.481 160.690,252.274 162.400,252.384 162.400 C 252.494 162.400,250.881 160.690,248.800 158.600 C 246.719 156.510,244.926 154.800,244.816 154.800 C 244.706 154.800,246.319 156.510,248.400 158.600 M143.395 163.327 C 143.242 165.377,143.270 168.021,143.458 169.202 C 143.737 170.954,143.810 170.268,143.854 165.475 C 143.915 158.679,143.788 158.083,143.395 163.327 M253.600 163.296 C 253.600 163.394,255.355 165.068,257.500 167.015 C 259.645 168.963,260.860 169.964,260.200 169.240 C 258.827 167.735,253.600 163.027,253.600 163.296 M267.156 176.168 C 272.442 181.691,274.740 184.587,277.257 188.897 C 278.125 190.384,278.925 191.600,279.035 191.600 C 279.144 191.600,278.742 190.745,278.141 189.700 C 274.818 183.921,270.395 178.509,264.805 173.381 C 263.378 172.071,264.436 173.326,267.156 176.168 M144.075 174.600 C 144.065 175.260,144.211 176.160,144.400 176.600 L 144.744 177.400 144.725 176.600 C 144.714 176.160,144.568 175.260,144.400 174.600 L 144.095 173.400 144.075 174.600 M144.868 179.200 C 144.862 179.750,145.011 180.560,145.200 181.000 L 145.544 181.800 145.532 181.000 C 145.526 180.560,145.376 179.750,145.200 179.200 L 144.880 178.200 144.868 179.200 M145.634 183.000 C 145.622 183.440,145.787 184.070,146.000 184.400 C 146.514 185.195,146.514 184.196,146.000 183.000 L 145.656 182.200 145.634 183.000 M123.271 187.043 C 122.761 187.831,122.425 188.558,122.526 188.659 C 122.626 188.760,123.104 188.203,123.587 187.421 C 125.128 184.928,125.845 185.601,126.123 189.800 C 126.241 191.571,126.264 191.500,126.328 189.180 C 126.433 185.352,125.011 184.358,123.271 187.043 M146.434 186.600 C 146.422 187.040,146.587 187.670,146.800 188.000 C 147.314 188.795,147.314 187.796,146.800 186.600 L 146.456 185.800 146.434 186.600 M147.234 189.400 C 147.222 189.840,147.387 190.470,147.600 190.800 C 148.114 191.595,148.114 190.596,147.600 189.400 L 147.256 188.600 147.234 189.400 M121.398 190.002 C 120.998 190.444,120.766 190.899,120.882 191.015 C 120.997 191.130,121.390 190.769,121.755 190.212 C 122.552 188.996,122.393 188.902,121.398 190.002 M119.429 193.229 C 118.830 194.133,118.417 194.951,118.512 195.045 C 118.606 195.139,119.173 194.476,119.771 193.571 C 120.370 192.667,120.783 191.849,120.688 191.755 C 120.594 191.661,120.027 192.324,119.429 193.229 M148.012 192.400 C 148.012 192.730,148.187 193.270,148.400 193.600 C 148.745 194.133,148.788 194.133,148.788 193.600 C 148.788 193.270,148.613 192.730,148.400 192.400 C 148.055 191.867,148.012 191.867,148.012 192.400 M279.203 192.220 C 279.201 192.451,279.388 192.828,279.617 193.057 C 279.846 193.286,280.741 194.807,281.606 196.437 C 282.471 198.067,283.184 199.260,283.189 199.089 C 283.204 198.660,281.024 194.467,280.023 193.000 C 279.573 192.340,279.204 191.989,279.203 192.220 M126.434 193.200 C 126.446 193.530,126.611 194.160,126.800 194.600 L 127.144 195.400 127.166 194.600 C 127.178 194.160,127.013 193.530,126.800 193.200 C 126.455 192.667,126.415 192.667,126.434 193.200 M148.834 195.400 C 148.822 195.840,148.987 196.470,149.200 196.800 C 149.714 197.595,149.714 196.596,149.200 195.400 L 148.856 194.600 148.834 195.400 M117.429 196.743 C 116.525 198.493,116.656 198.841,117.623 197.255 C 118.074 196.515,118.357 195.823,118.251 195.718 C 118.145 195.612,117.776 196.073,117.429 196.743 M127.234 197.200 C 127.246 197.530,127.411 198.160,127.600 198.600 L 127.944 199.400 127.966 198.600 C 127.978 198.160,127.813 197.530,127.600 197.200 C 127.255 196.667,127.215 196.667,127.234 197.200 M149.612 198.000 C 149.612 198.330,149.787 198.870,150.000 199.200 C 150.345 199.733,150.388 199.733,150.388 199.200 C 150.388 198.870,150.213 198.330,150.000 198.000 C 149.655 197.467,149.612 197.467,149.612 198.000 M128.028 199.876 C 128.118 200.915,128.744 201.796,128.772 200.924 C 128.787 200.442,128.620 199.936,128.400 199.800 C 128.180 199.664,128.013 199.698,128.028 199.876 M284.070 201.400 C 284.563 202.912,286.979 208.354,287.103 208.230 C 287.284 208.049,284.978 202.463,284.365 201.600 C 284.131 201.270,283.998 201.180,284.070 201.400 M113.442 205.237 C 112.506 207.113,112.690 207.676,113.647 205.862 C 114.093 205.016,114.374 204.240,114.271 204.137 C 114.168 204.034,113.795 204.529,113.442 205.237 M129.646 204.800 C 129.639 205.130,129.978 206.030,130.400 206.800 C 131.375 208.581,131.375 207.906,130.400 205.800 C 129.993 204.920,129.654 204.470,129.646 204.800 M152.872 209.000 C 152.894 211.787,152.896 211.791,153.220 209.860 C 153.399 208.794,153.389 207.534,153.198 207.060 C 152.955 206.458,152.857 207.041,152.872 209.000 M131.200 208.951 C 131.200 209.418,132.477 212.057,132.629 211.905 C 132.838 211.695,131.688 208.800,131.395 208.800 C 131.288 208.800,131.200 208.868,131.200 208.951 M287.200 209.352 C 287.200 209.938,289.284 216.049,289.433 215.900 C 289.519 215.814,289.124 214.317,288.556 212.572 C 287.588 209.599,287.200 208.678,287.200 209.352 M111.492 210.642 C 111.331 210.802,111.211 211.398,111.225 211.967 L 111.251 213.000 111.637 212.034 C 112.053 210.994,111.967 210.167,111.492 210.642 M151.515 214.242 C 150.919 215.209,150.571 216.000,150.742 216.000 C 151.087 216.000,152.963 212.824,152.740 212.616 C 152.663 212.543,152.112 213.275,151.515 214.242 M110.667 213.467 C 110.520 213.613,110.411 214.108,110.425 214.567 C 110.449 215.333,110.482 215.323,110.834 214.442 C 111.226 213.463,111.144 212.989,110.667 213.467 M133.621 214.138 C 133.582 214.771,135.227 216.765,136.516 217.647 L 137.800 218.526 136.393 217.163 C 135.619 216.413,134.683 215.350,134.314 214.800 C 133.944 214.250,133.633 213.952,133.621 214.138 M109.800 216.800 C 109.650 217.273,109.617 217.750,109.727 217.860 C 109.837 217.970,110.050 217.673,110.200 217.200 C 110.350 216.727,110.383 216.250,110.273 216.140 C 110.163 216.030,109.950 216.327,109.800 216.800 M289.653 217.000 C 289.629 217.950,291.104 224.072,291.146 223.200 C 291.162 222.870,290.837 221.160,290.424 219.400 C 290.011 217.640,289.664 216.560,289.653 217.000 M109.073 218.953 C 108.923 219.345,108.818 220.236,108.840 220.933 C 108.879 222.167,108.890 222.159,109.249 220.627 C 109.645 218.937,109.524 217.779,109.073 218.953 M142.500 219.487 C 143.105 219.578,144.095 219.578,144.700 219.487 C 145.305 219.395,144.810 219.320,143.600 219.320 C 142.390 219.320,141.895 219.395,142.500 219.487 M108.288 223.733 C 108.130 224.136,108.018 225.126,108.040 225.933 L 108.080 227.400 108.452 225.811 C 108.881 223.981,108.765 222.519,108.288 223.733 M291.287 225.200 C 291.283 225.750,291.424 226.650,291.600 227.200 C 292.031 228.544,292.031 227.092,291.600 225.400 C 291.326 224.322,291.294 224.302,291.287 225.200 M107.417 229.000 C 107.262 229.660,106.952 230.686,106.727 231.280 C 106.503 231.873,106.397 232.592,106.492 232.877 C 106.587 233.161,106.985 232.375,107.377 231.130 C 107.768 229.885,108.001 228.626,107.894 228.333 C 107.786 228.040,107.572 228.340,107.417 229.000 M292.175 239.600 C 292.175 245.650,292.231 248.125,292.299 245.100 C 292.367 242.075,292.367 237.125,292.299 234.100 C 292.231 231.075,292.175 233.550,292.175 239.600 M106.400 248.758 C 106.400 249.769,107.619 253.714,107.858 253.475 C 108.022 253.312,106.828 248.322,106.557 248.033 C 106.470 247.942,106.400 248.268,106.400 248.758 M291.278 255.013 C 290.995 257.426,290.398 260.660,289.953 262.200 C 288.789 266.222,286.856 271.992,286.180 273.460 C 285.861 274.154,285.600 274.864,285.600 275.038 C 285.600 275.590,278.340 289.990,277.936 290.239 C 277.724 290.370,277.378 290.865,277.166 291.339 C 275.102 295.964,263.307 308.453,255.272 314.520 C 253.582 315.795,251.883 317.100,251.495 317.420 C 251.108 317.739,250.686 318.000,250.557 318.000 C 250.429 318.000,249.846 318.339,249.262 318.753 C 247.424 320.057,244.076 321.837,239.400 323.998 C 237.860 324.709,235.908 325.631,235.062 326.046 C 234.216 326.461,233.269 326.800,232.957 326.800 C 232.645 326.800,232.077 326.958,231.695 327.151 C 230.633 327.687,228.224 328.400,227.472 328.400 C 227.102 328.400,226.800 328.580,226.800 328.800 C 226.800 329.020,226.080 329.200,225.200 329.200 C 224.320 329.200,223.600 329.380,223.600 329.600 C 223.600 329.820,222.880 330.000,222.000 330.000 C 221.120 330.000,220.400 330.144,220.400 330.320 C 220.400 330.660,216.345 331.600,214.876 331.600 C 214.394 331.600,214.000 331.780,214.000 332.000 C 214.000 332.220,213.676 332.400,213.280 332.400 C 212.884 332.400,212.374 332.586,212.148 332.812 C 211.418 333.542,189.942 333.097,186.600 332.282 C 185.060 331.907,183.224 331.600,182.519 331.600 C 181.814 331.600,180.824 331.437,180.319 331.237 C 179.813 331.037,178.050 330.480,176.400 329.998 C 168.662 327.741,164.454 326.108,157.724 322.748 C 153.722 320.750,150.139 318.775,149.762 318.358 C 149.385 317.941,148.904 317.600,148.693 317.600 C 148.482 317.600,147.745 317.136,147.055 316.569 C 146.365 316.002,144.331 314.385,142.535 312.976 C 140.740 311.566,137.230 308.492,134.735 306.145 L 130.200 301.878 134.800 306.466 C 140.326 311.977,147.206 317.575,151.600 320.135 C 154.307 321.712,165.406 327.189,165.905 327.194 C 166.183 327.197,166.723 327.356,167.105 327.547 C 168.184 328.087,171.689 329.275,172.800 329.478 C 173.350 329.578,174.160 329.824,174.600 330.025 C 175.788 330.567,179.920 331.642,182.200 332.003 C 183.300 332.177,185.426 332.608,186.925 332.960 C 191.370 334.004,211.950 333.877,214.344 332.791 C 215.303 332.356,216.737 332.000,217.530 332.000 C 218.324 332.000,219.699 331.753,220.587 331.451 C 221.474 331.149,223.190 330.617,224.400 330.269 C 250.263 322.819,270.499 306.465,282.194 283.560 C 288.018 272.154,292.884 256.121,291.950 251.413 C 291.864 250.980,291.562 252.600,291.278 255.013 M108.034 255.800 C 108.022 256.460,108.187 257.270,108.400 257.600 C 108.906 258.382,108.906 256.576,108.400 255.400 C 108.105 254.713,108.053 254.770,108.034 255.800 M108.828 259.572 C 108.813 260.106,109.005 261.186,109.256 261.972 C 109.508 262.757,109.782 263.651,109.866 263.957 C 109.950 264.264,110.111 264.423,110.223 264.311 C 110.335 264.199,110.073 262.868,109.642 261.353 C 109.210 259.839,108.844 259.037,108.828 259.572 M110.428 266.476 C 110.413 267.068,110.580 267.664,110.800 267.800 C 111.278 268.095,111.278 267.311,110.800 266.200 C 110.493 265.486,110.453 265.515,110.428 266.476 M112.832 273.090 C 112.789 273.749,114.679 277.880,118.144 284.697 C 118.395 285.190,118.720 285.595,118.866 285.597 C 119.013 285.599,118.104 283.575,116.846 281.100 C 115.589 278.625,114.178 275.700,113.712 274.600 C 113.246 273.500,112.850 272.820,112.832 273.090 M119.207 286.107 C 119.192 286.779,125.618 296.778,126.074 296.792 C 126.225 296.796,125.132 294.955,123.644 292.700 C 122.157 290.445,120.552 287.970,120.077 287.200 C 119.602 286.430,119.210 285.938,119.207 286.107 M126.411 297.472 C 126.427 297.950,129.925 301.810,130.140 301.588 C 130.241 301.484,129.440 300.442,128.361 299.272 C 127.283 298.102,126.405 297.292,126.411 297.472 " stroke="none" fill="#2b686d" fill-rule="evenodd"></path></g></svg>